<svg width="183" height="164" viewBox="0 0 183 164" fill="none" xmlns="http://www.w3.org/2000/svg">
<path d="M178.635 79.0497L103.792 4.2066C102.23 2.6445 99.6969 2.6445 98.1348 4.2066L70.3206 32.0208C68.7585 33.5829 68.7585 36.1156 70.3206 37.6777L111.693 79.0497C113.255 80.6118 113.255 83.1445 111.693 84.7066L70.3206 126.079C68.7585 127.641 68.7585 130.173 70.3206 131.736L98.1348 159.55C99.6969 161.112 102.23 161.112 103.792 159.55L178.635 84.7066C180.197 83.1445 180.197 80.6118 178.635 79.0497Z" stroke="url(#paint0_linear_1723_9102)" stroke-width="5"/>
<path d="M34.4453 128.907L65.0879 159.55C66.65 161.112 69.1827 161.112 70.7448 159.55L145.588 84.7066C147.15 83.1445 147.15 80.6118 145.588 79.0497L70.7448 4.2066C69.1827 2.6445 66.65 2.6445 65.0879 4.2066L34.4453 34.8492" stroke="url(#paint1_linear_1723_9102)" stroke-width="5"/>
<path d="M112.541 79.0497L37.6979 4.2066C36.1358 2.6445 33.6032 2.6445 32.0411 4.2066L4.22686 32.0208C2.66477 33.5829 2.66477 36.1156 4.22686 37.6777L45.599 79.0497C47.1611 80.6118 47.1611 83.1445 45.599 84.7066L4.22686 126.079C2.66477 127.641 2.66477 130.173 4.22687 131.736L32.0411 159.55C33.6032 161.112 36.1358 161.112 37.6979 159.55L112.541 84.7066C114.103 83.1445 114.103 80.6118 112.541 79.0497Z" stroke="#FFF5D9" stroke-width="5"/>
<defs>
<linearGradient id="paint0_linear_1723_9102" x1="181.04" y1="78.4887" x2="82.3211" y2="78.4887" gradientUnits="userSpaceOnUse">
<stop offset="0.660395" stop-color="#FFF5D9"/>
<stop offset="0.925542" stop-color="#999382" stop-opacity="0"/>
</linearGradient>
<linearGradient id="paint1_linear_1723_9102" x1="147.993" y1="78.4887" x2="49.2743" y2="78.4887" gradientUnits="userSpaceOnUse">
<stop offset="0.660395" stop-color="#FFF5D9"/>
<stop offset="0.9247" stop-color="#999382" stop-opacity="0"/>
</linearGradient>
</defs>
</svg>
