<svg width="159" height="145" viewBox="0 0 159 145" fill="none" xmlns="http://www.w3.org/2000/svg">
<path d="M155.943 29.8794C155.943 32.988 154.265 36.252 150.563 39.5202C146.865 42.7853 141.37 45.8398 134.365 48.4555C120.374 53.68 100.879 56.9621 79.2216 56.9621C57.5646 56.9621 38.0689 53.68 24.078 48.4555C17.0732 45.8398 11.5785 42.7853 7.88022 39.5202C4.17833 36.252 2.5 32.988 2.5 29.8794C2.5 26.7708 4.17833 23.5068 7.88022 20.2386C11.5785 16.9735 17.0732 13.919 24.078 11.3033C38.0689 6.07882 57.5646 2.79663 79.2216 2.79663C100.879 2.79663 120.374 6.07882 134.365 11.3033C141.37 13.919 146.865 16.9735 150.563 20.2386C154.265 23.5068 155.943 26.7708 155.943 29.8794Z" stroke="#FFF5D9" stroke-width="5"/>
<path d="M154.943 56.9536C154.943 59.6718 153.48 62.6849 149.901 65.8448C146.327 69.0002 140.955 72.0016 134.015 74.5929C120.163 79.7658 100.791 83.0364 79.2216 83.0364C57.6524 83.0364 38.2806 79.7658 24.4279 74.5929C17.4884 72.0016 12.1162 69.0002 8.54205 65.8448C4.96294 62.6849 3.5 59.6718 3.5 56.9536C3.5 54.2354 4.96294 51.2223 8.54205 48.0624C12.1162 44.907 17.4884 41.9056 24.4279 39.3143C38.2806 34.1414 57.6524 30.8708 79.2216 30.8708C100.791 30.8708 120.163 34.1414 134.015 39.3143C140.955 41.9056 146.327 44.907 149.901 48.0624C153.48 51.2223 154.943 54.2354 154.943 56.9536Z" stroke="url(#paint0_linear_1723_9072)" stroke-width="7"/>
<path d="M153.943 86.0371C153.943 88.365 152.696 91.1272 149.239 94.1786C145.79 97.2244 140.54 100.173 133.666 102.74C119.951 107.861 100.703 111.12 79.2216 111.12C57.7401 111.12 38.4922 107.861 24.7777 102.74C17.9035 100.173 12.6538 97.2244 9.20389 94.1786C5.74755 91.1272 4.5 88.365 4.5 86.0371C4.5 83.7092 5.74755 80.947 9.20389 77.8956C12.6538 74.8498 17.9035 71.9015 24.7777 69.3346C38.4922 64.2134 57.7401 60.9543 79.2216 60.9543C100.703 60.9543 119.951 64.2134 133.666 69.3346C140.54 71.9015 145.79 74.8498 149.239 77.8956C152.696 80.947 153.943 83.7092 153.943 86.0371Z" stroke="url(#paint1_linear_1723_9072)" stroke-width="9"/>
<path d="M152.943 115.12C152.943 117.058 151.911 119.569 148.578 122.512C145.252 125.448 140.125 128.344 133.316 130.886C119.739 135.956 100.615 139.203 79.2216 139.203C57.8279 139.203 38.7039 135.956 25.1275 130.886C18.3187 128.344 13.1914 125.448 9.86572 122.512C6.53216 119.569 5.5 117.058 5.5 115.12C5.5 113.183 6.53216 110.672 9.86572 107.728C13.1914 104.792 18.3187 101.897 25.1275 99.3547C38.7039 94.285 57.8279 91.0376 79.2216 91.0376C100.615 91.0376 119.739 94.285 133.316 99.3547C140.125 101.897 145.252 104.792 148.578 107.728C151.911 110.672 152.943 113.183 152.943 115.12Z" stroke="url(#paint2_linear_1723_9072)" stroke-width="11"/>
<defs>
<linearGradient id="paint0_linear_1723_9072" x1="79.2216" y1="27.3708" x2="79.2216" y2="86.5364" gradientUnits="userSpaceOnUse">
<stop stop-color="#FFF5D9" stop-opacity="0"/>
<stop offset="1" stop-color="#FFF5D9"/>
</linearGradient>
<linearGradient id="paint1_linear_1723_9072" x1="79.2216" y1="56.4543" x2="79.2216" y2="115.62" gradientUnits="userSpaceOnUse">
<stop stop-color="#FFF5D9" stop-opacity="0"/>
<stop offset="1" stop-color="#FFF5D9"/>
</linearGradient>
<linearGradient id="paint2_linear_1723_9072" x1="79.2216" y1="85.5376" x2="79.2216" y2="144.703" gradientUnits="userSpaceOnUse">
<stop stop-color="#FFF5D9" stop-opacity="0"/>
<stop offset="1" stop-color="#FFF5D9"/>
</linearGradient>
</defs>
</svg>
