<svg width="28" height="20" viewBox="0 0 28 20" fill="none" xmlns="http://www.w3.org/2000/svg">
<path fill-rule="evenodd" clip-rule="evenodd" d="M3.74956 2.22729C6.19854 0.26075 9.94323 0.00344581 9.94323 0.00344581C10.1936 -0.0172302 10.4303 0.122908 10.5313 0.352644C10.5313 0.352644 10.7312 0.791439 10.8622 1.41862C12.0085 1.23483 12.9734 1.17969 13.5271 1.17969C14.0808 1.17969 15.0457 1.23483 16.192 1.41862C16.323 0.791439 16.5229 0.352644 16.5229 0.352644C16.6056 0.164261 16.7779 0.0310141 16.9823 0.00344581C17.026 -0.0011486 17.0673 -0.0011486 17.111 0.00344581C17.111 0.00344581 20.8557 0.26075 23.3046 2.22729C23.3161 2.23188 23.3299 2.23877 23.3414 2.24566C23.7664 2.63851 24.0857 3.24731 24.4809 4.12031C24.876 4.9933 25.2942 6.11671 25.6755 7.37336C26.4359 9.88897 27.0539 12.9766 27.0539 15.8828C27.0562 15.9861 27.031 16.0872 26.9804 16.1768C26.1212 17.6862 24.5406 18.5982 23.0657 19.1726C21.5908 19.7469 20.2285 19.9767 19.537 19.9996C19.3417 20.0065 19.1556 19.9169 19.0408 19.7607L17.6072 17.7758C16.4516 18.0492 15.0962 18.2353 13.5271 18.2353C11.958 18.2353 10.6026 18.0492 9.447 17.7758L8.01345 19.7607C7.89858 19.9169 7.71249 20.0065 7.51722 19.9996C6.82571 19.9767 5.46338 19.7469 3.98848 19.1726C2.51358 18.5982 0.932997 17.6862 0.0737861 16.1768C0.0232445 16.0872 -0.00202652 15.9861 0.000270688 15.8828C0.000270688 12.9766 0.618259 9.88897 1.37868 7.37336C1.76005 6.11671 2.17816 4.9933 2.57331 4.12031C2.96845 3.24731 3.28779 2.63851 3.7128 2.24566C3.72428 2.23877 3.73807 2.23188 3.74956 2.22729ZM9.68013 1.61779C9.64596 1.49166 9.61698 1.38472 9.57565 1.27159C8.90482 1.35429 6.29732 1.70579 4.52147 3.10947C4.4066 3.21515 4.00686 3.80327 3.63928 4.61654C3.27171 5.4298 2.88575 6.48888 2.51817 7.70418C1.8014 10.0751 1.22246 12.9996 1.1949 15.6806C1.86343 16.7627 3.11778 17.5667 4.41119 18.0699C5.58744 18.527 6.68558 18.7315 7.25991 18.7866L8.25237 17.445C7.74695 17.2819 7.29208 17.105 6.89234 16.9304C5.40825 16.2779 4.61336 15.5887 4.61336 15.5887C4.43876 15.4394 4.36525 15.2005 4.42957 14.9799C4.4916 14.7571 4.67998 14.594 4.90742 14.5595C5.08662 14.5296 5.2704 14.5825 5.40365 14.7065C5.40365 14.7065 6.01934 15.2694 7.37019 15.8644C7.86871 16.0826 8.46603 16.317 9.15294 16.5076C9.29997 16.4824 9.45159 16.5168 9.57565 16.5995C10.6761 16.8683 11.981 17.059 13.5271 17.059C15.0617 17.059 16.3643 16.8844 17.4602 16.6179C17.5842 16.5168 17.7427 16.4709 17.9013 16.4893C18.5859 16.2986 19.1878 16.0826 19.684 15.8644C21.0349 15.2694 21.6505 14.7065 21.6505 14.7065C21.8941 14.4883 22.2685 14.5089 22.4868 14.7525C22.705 14.996 22.6844 15.3705 22.4408 15.5887C22.4408 15.5887 21.646 16.2779 20.1619 16.9304C19.7621 17.105 19.3072 17.2819 18.8018 17.445L19.7943 18.7866C20.3686 18.7315 21.4668 18.527 22.643 18.0699C23.9364 17.5667 25.1908 16.7627 25.8593 15.6806C25.8317 12.9996 25.2528 10.0751 24.536 7.70418C24.1685 6.48888 23.7825 5.4298 23.4149 4.61654C23.0473 3.80327 22.6476 3.21515 22.5327 3.10947C20.7569 1.70579 18.1494 1.35429 17.4786 1.27159C17.4373 1.3846 17.4083 1.49145 17.3742 1.61742L17.3742 1.61746L17.3741 1.61751L17.3741 1.61765L17.3741 1.61774L17.3683 1.63916C18.6939 1.94701 20.1458 2.45013 21.5035 3.29326C21.7172 3.38286 21.8573 3.58962 21.8642 3.82165C21.8688 4.05139 21.7379 4.26504 21.5311 4.36612C21.322 4.46491 21.0739 4.43504 20.897 4.28572C18.1724 2.59716 14.7056 2.35594 13.5271 2.35594C12.3486 2.35594 8.88185 2.59716 6.15718 4.28572C5.98029 4.43504 5.73217 4.46491 5.52311 4.36612C5.31635 4.26504 5.1854 4.05139 5.19 3.82165C5.19689 3.58962 5.33703 3.38286 5.55068 3.29326C6.90842 2.45013 8.36035 1.94701 9.68592 1.63916L9.68013 1.61779ZM9.7043 8.23717C8.20413 8.23717 7.05775 9.5995 7.05775 11.1778C7.05775 12.7561 8.20413 14.1184 9.7043 14.1184C11.2045 14.1184 12.3509 12.7561 12.3509 11.1778C12.3509 9.5995 11.2045 8.23717 9.7043 8.23717ZM14.7033 11.1778C14.7033 9.5995 15.8497 8.23717 17.3499 8.23717C18.8501 8.23717 19.9965 9.5995 19.9965 11.1778C19.9965 12.7561 18.8501 14.1184 17.3499 14.1184C15.8497 14.1184 14.7033 12.7561 14.7033 11.1778ZM9.7043 9.41341C10.4785 9.41341 11.1746 10.1578 11.1746 11.1778C11.1746 12.1978 10.4785 12.9422 9.7043 12.9422C8.93009 12.9422 8.23399 12.1978 8.23399 11.1778C8.23399 10.1578 8.93009 9.41341 9.7043 9.41341ZM18.8202 11.1778C18.8202 10.1578 18.1241 9.41341 17.3499 9.41341C16.5757 9.41341 15.8796 10.1578 15.8796 11.1778C15.8796 12.1978 16.5757 12.9422 17.3499 12.9422C18.1241 12.9422 18.8202 12.1978 18.8202 11.1778Z" fill="#69C5F7"/>
</svg>
