<svg width="21" height="23" viewBox="0 0 21 23" fill="none" xmlns="http://www.w3.org/2000/svg">
<path fill-rule="evenodd" clip-rule="evenodd" d="M19.2788 3.95995C19.2515 4.1162 19.2202 4.25487 19.1885 4.37987L19.1885 4.37989C20.0285 5.47659 20.4734 6.82484 20.4512 8.20607C20.4536 8.52633 20.4382 8.84648 20.4053 9.16506C20.4049 12.3497 18.1016 15.067 14.96 15.5889C15.0057 15.7255 15.0445 15.8643 15.0762 16.0049C15.1869 16.433 15.239 16.8742 15.231 17.3164V19.666C15.2212 20.3135 15.2212 20.7891 15.2212 21.0059C15.2212 21.5582 14.7735 22.0059 14.2212 22.0059C13.6689 22.0059 13.2212 21.5582 13.2212 21.0059C13.2212 20.7832 13.2212 20.2979 13.231 19.6504V17.3164C13.2373 17.0404 13.2063 16.7648 13.1387 16.4971C13.0845 16.1522 12.921 15.8339 12.6724 15.5889C12.3744 15.3281 12.2584 14.9161 12.3764 14.5382C12.4945 14.1603 12.8244 13.8876 13.2178 13.8428C16.688 13.4473 18.1934 12.0391 18.4136 8.98341C18.4405 8.72519 18.453 8.46568 18.4512 8.20607C18.475 7.23578 18.1556 6.28823 17.5493 5.53031C17.48 5.44242 17.4028 5.34867 17.3257 5.26176C17.0761 4.98246 17.0035 4.58708 17.1377 4.23735C17.2138 4.04092 17.2704 3.83746 17.3066 3.62992C17.3817 3.10325 17.352 2.56695 17.2192 2.0518C16.353 2.30223 15.5384 2.70537 14.8139 3.24223C14.5706 3.4074 14.2671 3.45771 13.9834 3.37992C11.9625 2.83076 9.83165 2.83042 7.81054 3.37892C7.52845 3.45679 7.22645 3.40832 6.9829 3.2461C6.25502 2.71146 5.43703 2.31189 4.5679 2.06642C4.43455 2.59425 4.40783 3.14337 4.4893 3.68166C4.52516 3.87096 4.5771 4.05686 4.64457 4.23733C4.77873 4.58706 4.70617 4.98244 4.45657 5.26174C4.38747 5.33556 4.32212 5.41281 4.26077 5.49319C3.65017 6.26416 3.32529 7.22273 3.34134 8.20608C3.33879 8.45261 3.35004 8.69909 3.37503 8.94436C3.60061 12.041 5.10013 13.4483 8.55423 13.8428C8.94752 13.8873 9.27749 14.1598 9.39565 14.5375C9.51382 14.9153 9.39793 15.3272 9.10013 15.5879C8.85907 15.8266 8.69598 16.1326 8.63235 16.4658C8.49903 17.0009 7.95791 17.3271 7.42254 17.1952C6.88717 17.0633 6.5595 16.523 6.68997 15.9873C6.72513 15.8457 6.76468 15.7119 6.80813 15.5869C4.71782 15.1123 1.71782 13.7305 1.38382 9.12794C1.35282 8.82166 1.33864 8.5139 1.34134 8.20607C1.32702 6.82633 1.76828 5.48041 2.59671 4.37697C2.56936 4.26858 2.543 4.15041 2.51858 4.02248C2.34474 2.88781 2.4842 1.72722 2.9219 0.666038C3.0333 0.38598 3.26537 0.171317 3.55325 0.0820379C3.90579 -0.0312421 5.21341 -0.246042 7.71684 1.33688C9.8063 0.845173 11.9814 0.845173 14.0708 1.33688C16.5845 -0.269572 17.8989 -0.0332421 18.2549 0.0868779C18.5357 0.179873 18.7611 0.392187 18.8706 0.666948C19.2996 1.70814 19.4406 2.84554 19.2788 3.95995ZM8.16132 18.7375C8.3895 18.9274 8.52146 19.209 8.52151 19.5059C8.52151 20.2236 8.52835 20.4981 8.53323 20.6876L8.53811 21.0059C8.53811 21.5582 8.09039 22.0059 7.53811 22.0059C6.98582 22.0059 6.53811 21.5582 6.53811 21.0059L6.53372 20.7383C6.53324 20.7086 6.53231 20.6759 6.53132 20.6414L6.53128 20.6397C3.48831 20.8399 2.42972 19.2872 2.06546 18.2637C1.84478 17.7571 1.53147 17.296 1.14163 16.9043C0.811028 16.7276 -0.00388206 16.2051 2.79417e-05 15.3897C0.00252238 14.8392 0.449564 14.3944 1.00003 14.3946H1.00491C1.41883 14.3964 1.78885 14.653 1.93558 15.0401C1.98795 15.0811 2.04364 15.1177 2.10208 15.1495C2.92106 15.774 3.55579 16.6085 3.93899 17.5645C4.37845 18.7988 6.03128 18.7627 7.34036 18.5225C7.63236 18.4687 7.93315 18.5475 8.16132 18.7375Z" fill="#69C5F7"/>
</svg>
