<svg width="161" height="162" viewBox="0 0 161 162" fill="none" xmlns="http://www.w3.org/2000/svg">
<path d="M158.256 81C158.256 124.011 123.389 158.878 80.3782 158.878C37.3672 158.878 2.5 124.011 2.5 81C2.5 37.9891 37.3672 3.12183 80.3782 3.12183C123.389 3.12183 158.256 37.9891 158.256 81Z" stroke="#FFF5D9" stroke-width="5"/>
<path d="M133.373 81C133.373 102.753 127.281 122.338 117.561 136.415C107.833 150.503 94.6446 158.878 80.3742 158.878C66.1038 158.878 52.915 150.503 43.1876 136.415C33.4672 122.338 27.375 102.753 27.375 81C27.375 59.2469 33.4672 39.6623 43.1876 25.5845C52.915 11.4965 66.1038 3.12183 80.3742 3.12183C94.6446 3.12183 107.833 11.4965 117.561 25.5845C127.281 39.6623 133.373 59.2469 133.373 81Z" stroke="#FFF5D9" stroke-width="5"/>
<path d="M98.9232 81C98.9232 103.046 96.5802 122.917 92.8389 137.202C90.9634 144.364 88.7724 149.979 86.4404 153.745C84.0241 157.648 81.9056 158.878 80.3717 158.878C78.8379 158.878 76.7194 157.648 74.3031 153.745C71.9711 149.979 69.7801 144.364 67.9046 137.202C64.1632 122.917 61.8203 103.046 61.8203 81C61.8203 58.9541 64.1632 39.0825 67.9046 24.7974C69.7801 17.6363 71.9711 12.0205 74.3031 8.25448C76.7194 4.35227 78.8379 3.12183 80.3717 3.12183C81.9056 3.12183 84.0241 4.35227 86.4404 8.25448C88.7724 12.0205 90.9634 17.6363 92.8389 24.7974C96.5802 39.0825 98.9232 58.9541 98.9232 81Z" stroke="#FFF5D9" stroke-width="5"/>
<path d="M24.875 25.5007H135.873" stroke="#FFF5D9" stroke-width="5"/>
<path d="M24.875 136.5H135.873" stroke="#FFF5D9" stroke-width="5"/>
<path d="M5.74219 107.789H155.016" stroke="#FFF5D9" stroke-width="5"/>
<path d="M7.64844 52.2935H153.095" stroke="#FFF5D9" stroke-width="5"/>
<path d="M1.91406 77.1724H158.843" stroke="#FFF5D9" stroke-width="5"/>
</svg>
