<svg width="1876" height="996" viewBox="0 0 1876 996" fill="none" xmlns="http://www.w3.org/2000/svg">
<g opacity="0.9" filter="url(#filter0_f_99_118)">
<mask id="path-1-inside-1_99_118" fill="white">
<path fill-rule="evenodd" clip-rule="evenodd" d="M1020.45 15H1861.08L1367.16 131.925L558.168 1234L832.07 511.743L14.918 96.7084L978.364 125.98L1020.45 15Z"/>
</mask>
<path d="M1861.08 15L1861.55 16.9462L1861.08 13V15ZM1020.45 15V13H1019.07L1018.58 14.2908L1020.45 15ZM1367.16 131.925L1366.7 129.979L1365.98 130.149L1365.54 130.742L1367.16 131.925ZM558.168 1234L556.298 1233.29L559.78 1235.18L558.168 1234ZM832.07 511.743L833.94 512.452L834.577 510.773L832.976 509.96L832.07 511.743ZM14.918 96.7084L14.9787 94.7093L14.0123 98.4915L14.918 96.7084ZM978.364 125.98L978.303 127.979L979.728 128.022L980.234 126.689L978.364 125.98ZM1861.08 13H1020.45V17H1861.08V13ZM1367.62 133.872L1861.55 16.9462L1860.62 13.0538L1366.7 129.979L1367.62 133.872ZM559.78 1235.18L1368.77 133.109L1365.54 130.742L556.556 1232.82L559.78 1235.18ZM830.2 511.034L556.298 1233.29L560.038 1234.71L833.94 512.452L830.2 511.034ZM832.976 509.96L15.8237 94.9252L14.0123 98.4915L831.164 513.526L832.976 509.96ZM14.8572 98.7074L978.303 127.979L978.424 123.98L14.9787 94.7093L14.8572 98.7074ZM1018.58 14.2908L976.494 125.27L980.234 126.689L1022.32 15.7092L1018.58 14.2908Z" fill="url(#paint0_diamond_99_118)" mask="url(#path-1-inside-1_99_118)"/>
</g>
<g opacity="0.9" filter="url(#filter1_f_99_118)">
<mask id="path-3-inside-2_99_118" fill="white">
<path fill-rule="evenodd" clip-rule="evenodd" d="M1020.45 15H1861.08L1367.16 131.925L558.168 1234L832.07 511.743L14.918 96.7084L978.364 125.98L1020.45 15Z"/>
</mask>
<path d="M1861.08 15L1861.55 16.9462L1861.08 13V15ZM1020.45 15V13H1019.07L1018.58 14.2908L1020.45 15ZM1367.16 131.925L1366.7 129.979L1365.98 130.149L1365.54 130.742L1367.16 131.925ZM558.168 1234L556.298 1233.29L559.78 1235.18L558.168 1234ZM832.07 511.743L833.94 512.452L834.577 510.773L832.976 509.96L832.07 511.743ZM14.918 96.7084L14.9787 94.7093L14.0123 98.4915L14.918 96.7084ZM978.364 125.98L978.303 127.979L979.728 128.022L980.234 126.689L978.364 125.98ZM1861.08 13H1020.45V17H1861.08V13ZM1367.62 133.872L1861.55 16.9462L1860.62 13.0538L1366.7 129.979L1367.62 133.872ZM559.78 1235.18L1368.77 133.109L1365.54 130.742L556.556 1232.82L559.78 1235.18ZM830.2 511.034L556.298 1233.29L560.038 1234.71L833.94 512.452L830.2 511.034ZM832.976 509.96L15.8237 94.9252L14.0123 98.4915L831.164 513.526L832.976 509.96ZM14.8572 98.7074L978.303 127.979L978.424 123.98L14.9787 94.7093L14.8572 98.7074ZM1018.58 14.2908L976.494 125.27L980.234 126.689L1022.32 15.7092L1018.58 14.2908Z" fill="#F35422" mask="url(#path-3-inside-2_99_118)"/>
</g>
<g opacity="0.4" filter="url(#filter2_d_99_118)">
<mask id="path-5-inside-3_99_118" fill="white">
<path fill-rule="evenodd" clip-rule="evenodd" d="M1020.45 15H1861.08L1367.16 131.925L558.168 1234L832.07 511.743L14.918 96.7084L978.364 125.98L1020.45 15Z"/>
</mask>
<path d="M1861.08 15L1861.55 16.9462L1861.08 13V15ZM1020.45 15V13H1019.07L1018.58 14.2908L1020.45 15ZM1367.16 131.925L1366.7 129.979L1365.98 130.149L1365.54 130.742L1367.16 131.925ZM558.168 1234L556.298 1233.29L559.78 1235.18L558.168 1234ZM832.07 511.743L833.94 512.452L834.577 510.773L832.976 509.96L832.07 511.743ZM14.918 96.7084L14.9787 94.7093L14.0123 98.4915L14.918 96.7084ZM978.364 125.98L978.303 127.979L979.728 128.022L980.234 126.689L978.364 125.98ZM1861.08 13H1020.45V17H1861.08V13ZM1367.62 133.872L1861.55 16.9462L1860.62 13.0538L1366.7 129.979L1367.62 133.872ZM559.78 1235.18L1368.77 133.109L1365.54 130.742L556.556 1232.82L559.78 1235.18ZM830.2 511.034L556.298 1233.29L560.038 1234.71L833.94 512.452L830.2 511.034ZM832.976 509.96L15.8237 94.9252L14.0123 98.4915L831.164 513.526L832.976 509.96ZM14.8572 98.7074L978.303 127.979L978.424 123.98L14.9787 94.7093L14.8572 98.7074ZM1018.58 14.2908L976.494 125.27L980.234 126.689L1022.32 15.7092L1018.58 14.2908Z" fill="#F35422" mask="url(#path-5-inside-3_99_118)"/>
</g>
<g opacity="0.2">
<mask id="path-7-inside-4_99_118" fill="white">
<path fill-rule="evenodd" clip-rule="evenodd" d="M1020.45 15H1861.08L1367.16 131.925L558.168 1234L832.07 511.743L14.918 96.7084L978.364 125.98L1020.45 15Z"/>
</mask>
<path d="M1861.08 15L1861.31 15.9731L1861.08 14V15ZM1020.45 15V14H1019.76L1019.52 14.6454L1020.45 15ZM1367.16 131.925L1366.93 130.952L1366.57 131.037L1366.35 131.334L1367.16 131.925ZM558.168 1234L557.233 1233.65L558.974 1234.59L558.168 1234ZM832.07 511.743L833.005 512.098L833.324 511.258L832.523 510.852L832.07 511.743ZM14.918 96.7084L14.9483 95.7088L14.4651 97.5999L14.918 96.7084ZM978.364 125.98L978.333 126.979L979.046 127.001L979.299 126.334L978.364 125.98ZM1861.08 14H1020.45V16H1861.08V14ZM1367.39 132.898L1861.31 15.9731L1860.85 14.0269L1366.93 130.952L1367.39 132.898ZM558.974 1234.59L1367.96 132.517L1366.35 131.334L557.362 1233.41L558.974 1234.59ZM831.135 511.389L557.233 1233.65L559.103 1234.35L833.005 512.098L831.135 511.389ZM832.523 510.852L15.3708 95.8168L14.4651 97.5999L831.617 512.635L832.523 510.852ZM14.8876 97.7079L978.333 126.979L978.394 124.98L14.9483 95.7088L14.8876 97.7079ZM1019.52 14.6454L977.429 125.625L979.299 126.334L1021.39 15.3546L1019.52 14.6454Z" fill="#FFF5D9" mask="url(#path-7-inside-4_99_118)"/>
</g>
<defs>
<filter id="filter0_f_99_118" x="0.217969" y="0.3" width="1875.57" height="1248.4" filterUnits="userSpaceOnUse" color-interpolation-filters="sRGB">
<feFlood flood-opacity="0" result="BackgroundImageFix"/>
<feBlend mode="normal" in="SourceGraphic" in2="BackgroundImageFix" result="shape"/>
<feGaussianBlur stdDeviation="7.35" result="effect1_foregroundBlur_99_118"/>
</filter>
<filter id="filter1_f_99_118" x="0.217969" y="0.3" width="1875.57" height="1248.4" filterUnits="userSpaceOnUse" color-interpolation-filters="sRGB">
<feFlood flood-opacity="0" result="BackgroundImageFix"/>
<feBlend mode="normal" in="SourceGraphic" in2="BackgroundImageFix" result="shape"/>
<feGaussianBlur stdDeviation="7.35" result="effect1_foregroundBlur_99_118"/>
</filter>
<filter id="filter2_d_99_118" x="10.918" y="15" width="1854.17" height="1227" filterUnits="userSpaceOnUse" color-interpolation-filters="sRGB">
<feFlood flood-opacity="0" result="BackgroundImageFix"/>
<feColorMatrix in="SourceAlpha" type="matrix" values="0 0 0 0 0 0 0 0 0 0 0 0 0 0 0 0 0 0 127 0" result="hardAlpha"/>
<feOffset dy="4"/>
<feGaussianBlur stdDeviation="2"/>
<feComposite in2="hardAlpha" operator="out"/>
<feColorMatrix type="matrix" values="0 0 0 0 0 0 0 0 0 0 0 0 0 0 0 0 0 0 0.25 0"/>
<feBlend mode="normal" in2="BackgroundImageFix" result="effect1_dropShadow_99_118"/>
<feBlend mode="normal" in="SourceGraphic" in2="effect1_dropShadow_99_118" result="shape"/>
</filter>
<radialGradient id="paint0_diamond_99_118" cx="0" cy="0" r="1" gradientUnits="userSpaceOnUse" gradientTransform="translate(938.001 624.5) rotate(90) scale(1044.36 2234.59)">
<stop offset="0.6" stop-color="#FFF5D9"/>
<stop offset="1" stop-color="white" stop-opacity="0"/>
</radialGradient>
</defs>
</svg>
