<svg width="1682" height="1110" viewBox="0 0 1682 1110" fill="none" xmlns="http://www.w3.org/2000/svg">
<g opacity="0.4">
<mask id="path-1-inside-1_1662_9424" fill="white">
<path fill-rule="evenodd" clip-rule="evenodd" d="M916.105 0H1681.57L1231.81 106.47L495.158 1110L744.569 452.326L0.484375 74.4021L877.781 101.056L916.105 0Z"/>
</mask>
<path d="M1681.57 0L1682.03 1.94621L1681.57 -2V0ZM916.105 0V-2H914.724L914.235 -0.709179L916.105 0ZM1231.81 106.47L1231.35 104.524L1230.63 104.693L1230.2 105.287L1231.81 106.47ZM495.158 1110L493.288 1109.29L496.771 1111.18L495.158 1110ZM744.569 452.326L746.439 453.035L747.076 451.356L745.475 450.542L744.569 452.326ZM0.484375 74.4021L0.545111 72.403L-0.42131 76.1853L0.484375 74.4021ZM877.781 101.056L877.721 103.055L879.146 103.098L879.651 101.765L877.781 101.056ZM1681.57 -2H916.105V2H1681.57V-2ZM1232.27 108.416L1682.03 1.94621L1681.11 -1.94621L1231.35 104.524L1232.27 108.416ZM496.771 1111.18L1233.42 107.654L1230.2 105.287L493.546 1108.82L496.771 1111.18ZM742.699 451.616L493.288 1109.29L497.028 1110.71L746.439 453.035L742.699 451.616ZM745.475 450.542L1.39006 72.6189L-0.42131 76.1853L743.663 454.109L745.475 450.542ZM0.423639 76.4012L877.721 103.055L877.842 99.0569L0.545111 72.403L0.423639 76.4012ZM914.235 -0.709179L875.911 100.347L879.651 101.765L917.975 0.709179L914.235 -0.709179Z" fill="#F35422" mask="url(#path-1-inside-1_1662_9424)"/>
</g>
</svg>
