<svg width="1682" height="1110" viewBox="0 0 1682 1110" fill="none" xmlns="http://www.w3.org/2000/svg">
<g opacity="0.2">
<mask id="path-1-inside-1_1662_9427" fill="white">
<path fill-rule="evenodd" clip-rule="evenodd" d="M916.105 0H1681.57L1231.81 106.47L495.158 1110L744.569 452.326L0.484375 74.4021L877.781 101.056L916.105 0Z"/>
</mask>
<path d="M1681.57 0L1681.8 0.973106L1681.57 -1V0ZM916.105 0V-1H915.415L915.17 -0.354589L916.105 0ZM1231.81 106.47L1231.58 105.497L1231.22 105.582L1231 105.878L1231.81 106.47ZM495.158 1110L494.223 1109.65L495.964 1110.59L495.158 1110ZM744.569 452.326L745.504 452.68L745.822 451.841L745.022 451.434L744.569 452.326ZM0.484375 74.4021L0.514743 73.4026L0.0315326 75.2937L0.484375 74.4021ZM877.781 101.056L877.751 102.055L878.464 102.077L878.716 101.411L877.781 101.056ZM1681.57 -1H916.105V1H1681.57V-1ZM1232.04 107.443L1681.8 0.973106L1681.34 -0.973106L1231.58 105.497L1232.04 107.443ZM495.964 1110.59L1232.62 107.062L1231 105.878L494.352 1109.41L495.964 1110.59ZM743.634 451.971L494.223 1109.65L496.093 1110.35L745.504 452.68L743.634 451.971ZM745.022 451.434L0.937217 73.5105L0.0315326 75.2937L744.116 453.217L745.022 451.434ZM0.454007 75.4016L877.751 102.055L877.812 100.056L0.514743 73.4026L0.454007 75.4016ZM915.17 -0.354589L876.846 100.701L878.716 101.411L917.04 0.354589L915.17 -0.354589Z" fill="#FFF5D9" mask="url(#path-1-inside-1_1662_9427)"/>
</g>
</svg>
