<svg width="1840" height="239" viewBox="0 0 1840 239" fill="none" xmlns="http://www.w3.org/2000/svg">
<path d="M1840 234.571H1691.52V3.89111H1840V45.0724H1738.33V94.2969H1821.34V135.478H1738.33V193.389H1840V234.571Z" fill="#FFF5D9"/>
<path d="M1414.31 234.571H1338.55V3.89111H1414.31C1428.68 3.89111 1442.04 6.03597 1454.37 10.3257C1466.81 14.5082 1477.48 20.2457 1486.38 27.5382C1495.28 34.8307 1502.9 43.3565 1509.22 53.1156C1515.66 62.8747 1520.43 73.3846 1523.54 84.6451C1526.65 95.7983 1528.21 107.327 1528.21 119.231C1528.21 131.135 1526.65 142.717 1523.54 153.978C1520.43 165.131 1515.66 175.587 1509.22 185.346C1502.9 195.105 1495.28 203.631 1486.38 210.924C1477.48 218.216 1466.81 224.007 1454.37 228.297C1442.04 232.48 1428.68 234.571 1414.31 234.571ZM1385.36 193.389H1413.03C1431.9 193.389 1448.04 186.258 1461.45 171.994C1474.85 157.624 1481.55 140.036 1481.55 119.231C1481.55 98.4258 1474.85 80.8916 1461.45 66.6283C1448.04 52.2577 1431.9 45.0724 1413.03 45.0724H1385.36V193.389Z" fill="#FFF5D9"/>
<path d="M1059.73 194.355C1069.59 194.355 1078.82 192.264 1087.4 188.081C1095.98 183.899 1103.16 178.376 1108.95 171.512C1114.85 164.541 1119.46 156.498 1122.79 147.383C1126.11 138.267 1127.77 128.883 1127.77 119.231C1127.77 109.579 1126.11 100.196 1122.79 91.0801C1119.46 81.9644 1114.85 73.9748 1108.95 67.1113C1103.16 60.1405 1095.98 54.5638 1087.4 50.3813C1078.82 46.1989 1069.59 44.1076 1059.73 44.1076C1046.54 44.1076 1034.63 47.7003 1024.02 54.8855C1013.51 61.9636 1005.46 71.1865 999.886 82.5542C994.309 93.922 991.521 106.148 991.521 119.231C991.521 132.315 994.309 144.541 999.886 155.908C1005.46 167.276 1013.51 176.553 1024.02 183.738C1034.63 190.816 1046.54 194.355 1059.73 194.355ZM1120.21 222.828C1102.62 233.338 1082.46 238.593 1059.73 238.593C1036.99 238.593 1016.78 233.338 999.081 222.828C981.386 212.318 967.766 198.055 958.222 180.038C948.784 161.914 944.066 141.645 944.066 119.231C944.066 102.501 946.854 86.844 952.431 72.2589C958.007 57.5666 965.782 44.9119 975.756 34.2949C985.73 23.6778 997.955 15.3129 1012.43 9.20004C1026.91 3.08719 1042.68 0.0307617 1059.73 0.0307617C1082.46 0.0307617 1102.62 5.28567 1120.21 15.7955C1137.91 26.198 1151.47 40.4614 1160.91 58.5854C1170.46 76.6022 1175.23 96.8175 1175.23 119.231C1175.23 141.645 1170.46 161.914 1160.91 180.038C1151.47 198.055 1137.91 212.318 1120.21 222.828Z" fill="#FFF5D9"/>
<path d="M780.915 234.571H744.721L620.855 89.3102V234.571H574.687V3.89111H608.307L734.747 153.817V3.89111H780.915V234.571Z" fill="#FFF5D9"/>
<path d="M396.889 234.571H350.077V3.89111H396.889V234.571Z" fill="#FFF5D9"/>
<path d="M46.8109 234.571H-0.000671387V3.89111H46.8109V234.571ZM201.884 234.571H141.238L53.0846 123.574L136.091 3.89111H192.393L107.779 123.253L201.884 234.571Z" fill="#FFF5D9"/>
</svg>
