<svg width="811" height="811" viewBox="0 0 811 811" fill="none" xmlns="http://www.w3.org/2000/svg">
<g opacity="0.2">
<path d="M405.271 809.541C628.543 809.541 809.541 628.543 809.541 405.271C809.541 181.998 628.543 1 405.271 1C181.998 1 1 181.998 1 405.271C1 628.543 181.998 809.541 405.271 809.541Z" stroke="url(#paint0_angular_89_268)" stroke-width="1.10231" stroke-miterlimit="10"/>
<path d="M405.272 794.161C620.049 794.161 794.16 620.05 794.16 405.273C794.16 190.495 620.049 16.3838 405.272 16.3838C190.494 16.3838 16.3828 190.495 16.3828 405.273C16.3828 620.05 190.494 794.161 405.272 794.161Z" stroke="url(#paint1_angular_89_268)" stroke-width="1.10231" stroke-miterlimit="10"/>
<path d="M405.273 778.778C611.555 778.778 778.78 611.553 778.78 405.271C778.78 198.988 611.555 31.7637 405.273 31.7637C198.99 31.7637 31.7656 198.988 31.7656 405.271C31.7656 611.553 198.99 778.778 405.273 778.778Z" stroke="url(#paint2_angular_89_268)" stroke-width="1.10231" stroke-miterlimit="10"/>
<path d="M405.274 763.395C603.061 763.395 763.399 603.057 763.399 405.27C763.399 207.483 603.061 47.1445 405.274 47.1445C207.487 47.1445 47.1484 207.483 47.1484 405.27C47.1484 603.057 207.487 763.395 405.274 763.395Z" stroke="url(#paint3_angular_89_268)" stroke-width="1.10231" stroke-miterlimit="10"/>
<path d="M405.27 748.015C594.562 748.015 748.014 594.564 748.014 405.272C748.014 215.98 594.562 62.5286 405.27 62.5286C215.979 62.5286 62.5271 215.98 62.5271 405.272C62.5271 594.564 215.979 748.015 405.27 748.015Z" stroke="url(#paint4_angular_89_268)" stroke-width="1.10231" stroke-miterlimit="10"/>
<path d="M405.268 732.633C586.065 732.633 732.629 586.068 732.629 405.272C732.629 224.475 586.065 77.9102 405.268 77.9102C224.471 77.9102 77.9062 224.475 77.9062 405.272C77.9062 586.068 224.471 732.633 405.268 732.633Z" stroke="url(#paint5_angular_89_268)" stroke-width="1.10231" stroke-miterlimit="10"/>
<path d="M405.27 717.257C577.574 717.257 717.254 577.577 717.254 405.272C717.254 232.968 577.574 93.2881 405.27 93.2881C232.965 93.2881 93.2852 232.968 93.2852 405.272C93.2852 577.577 232.965 717.257 405.27 717.257Z" stroke="url(#paint6_angular_89_268)" stroke-width="1.10231" stroke-miterlimit="10"/>
<path d="M405.271 701.874C569.08 701.874 701.873 569.081 701.873 405.271C701.873 241.462 569.08 108.669 405.271 108.669C241.461 108.669 108.668 241.462 108.668 405.271C108.668 569.081 241.461 701.874 405.271 701.874Z" stroke="url(#paint7_angular_89_268)" stroke-width="1.10231" stroke-miterlimit="10"/>
<path d="M405.272 686.491C560.585 686.491 686.492 560.584 686.492 405.271C686.492 249.957 560.585 124.05 405.272 124.05C249.958 124.05 124.051 249.957 124.051 405.271C124.051 560.584 249.958 686.491 405.272 686.491Z" stroke="url(#paint8_angular_89_268)" stroke-width="1.10231" stroke-miterlimit="10"/>
<path d="M405.269 671.111C552.087 671.111 671.107 552.091 671.107 405.272C671.107 258.454 552.087 139.434 405.269 139.434C258.45 139.434 139.43 258.454 139.43 405.272C139.43 552.091 258.45 671.111 405.269 671.111Z" stroke="url(#paint9_angular_89_268)" stroke-width="1.10231" stroke-miterlimit="10"/>
<path d="M405.27 655.729C543.593 655.729 655.727 543.595 655.727 405.271C655.727 266.948 543.593 154.814 405.27 154.814C266.946 154.814 154.812 266.948 154.812 405.271C154.812 543.595 266.946 655.729 405.27 655.729Z" stroke="url(#paint10_angular_89_268)" stroke-width="1.10231" stroke-miterlimit="10"/>
<path d="M405.271 640.353C535.102 640.353 640.351 535.104 640.351 405.273C640.351 275.442 535.102 170.193 405.271 170.193C275.44 170.193 170.191 275.442 170.191 405.273C170.191 535.104 275.44 640.353 405.271 640.353Z" stroke="url(#paint11_angular_89_268)" stroke-width="1.10231" stroke-miterlimit="10"/>
<path d="M405.268 624.97C526.604 624.97 624.967 526.608 624.967 405.272C624.967 283.936 526.604 185.574 405.268 185.574C283.933 185.574 185.57 283.936 185.57 405.272C185.57 526.608 283.933 624.97 405.268 624.97Z" stroke="url(#paint12_angular_89_268)" stroke-width="1.10231" stroke-miterlimit="10"/>
<path d="M405.269 609.588C518.11 609.588 609.586 518.112 609.586 405.271C609.586 292.431 518.11 200.955 405.269 200.955C292.429 200.955 200.953 292.431 200.953 405.271C200.953 518.112 292.429 609.588 405.269 609.588Z" stroke="url(#paint13_angular_89_268)" stroke-width="1.10231" stroke-miterlimit="10"/>
<path d="M405.27 594.207C509.616 594.207 594.205 509.618 594.205 405.272C594.205 300.927 509.616 216.338 405.27 216.338C300.925 216.338 216.336 300.927 216.336 405.272C216.336 509.618 300.925 594.207 405.27 594.207Z" stroke="url(#paint14_angular_89_268)" stroke-width="1.10231" stroke-miterlimit="10"/>
<path d="M405.271 578.824C501.122 578.824 578.824 501.122 578.824 405.271C578.824 309.421 501.122 231.719 405.271 231.719C309.421 231.719 231.719 309.421 231.719 405.271C231.719 501.122 309.421 578.824 405.271 578.824Z" stroke="url(#paint15_angular_89_268)" stroke-width="1.10231" stroke-miterlimit="10"/>
<path d="M405.273 563.446C492.631 563.446 563.449 492.628 563.449 405.27C563.449 317.912 492.631 247.095 405.273 247.095C317.915 247.095 247.098 317.912 247.098 405.27C247.098 492.628 317.915 563.446 405.273 563.446Z" stroke="url(#paint16_angular_89_268)" stroke-width="1.10231" stroke-miterlimit="10"/>
<path d="M405.27 548.066C484.133 548.066 548.064 484.135 548.064 405.272C548.064 326.409 484.133 262.479 405.27 262.479C326.407 262.479 262.477 326.409 262.477 405.272C262.477 484.135 326.407 548.066 405.27 548.066Z" stroke="url(#paint17_angular_89_268)" stroke-width="1.10231" stroke-miterlimit="10"/>
<path d="M405.271 532.683C475.639 532.683 532.683 475.639 532.683 405.271C532.683 334.904 475.639 277.859 405.271 277.859C334.904 277.859 277.859 334.904 277.859 405.271C277.859 475.639 334.904 532.683 405.271 532.683Z" stroke="url(#paint18_angular_89_268)" stroke-width="1.10231" stroke-miterlimit="10"/>
<path d="M405.272 517.3C467.145 517.3 517.302 467.143 517.302 405.27C517.302 343.398 467.145 293.24 405.272 293.24C343.4 293.24 293.242 343.398 293.242 405.27C293.242 467.143 343.4 517.3 405.272 517.3Z" stroke="url(#paint19_angular_89_268)" stroke-width="1.10231" stroke-miterlimit="10"/>
<path d="M405.269 501.92C458.647 501.92 501.917 458.65 501.917 405.272C501.917 351.895 458.647 308.624 405.269 308.624C351.892 308.624 308.621 351.895 308.621 405.272C308.621 458.65 351.892 501.92 405.269 501.92Z" stroke="url(#paint20_angular_89_268)" stroke-width="1.10231" stroke-miterlimit="10"/>
<path d="M405.271 486.542C450.156 486.542 486.542 450.156 486.542 405.271C486.542 360.386 450.156 324 405.271 324C360.386 324 324 360.386 324 405.271C324 450.156 360.386 486.542 405.271 486.542Z" stroke="url(#paint21_angular_89_268)" stroke-width="1.10231" stroke-miterlimit="10"/>
</g>
<defs>
<radialGradient id="paint0_angular_89_268" cx="0" cy="0" r="1" gradientUnits="userSpaceOnUse" gradientTransform="translate(405.271 405.271) rotate(90) scale(692.709 978.652)">
<stop offset="0.6" stop-color="#FFF5D9"/>
<stop offset="1" stop-color="white" stop-opacity="0"/>
</radialGradient>
<radialGradient id="paint1_angular_89_268" cx="0" cy="0" r="1" gradientUnits="userSpaceOnUse" gradientTransform="translate(405.272 405.273) rotate(90) scale(666.352 941.416)">
<stop offset="0.6" stop-color="#FFF5D9"/>
<stop offset="1" stop-color="white" stop-opacity="0"/>
</radialGradient>
<radialGradient id="paint2_angular_89_268" cx="0" cy="0" r="1" gradientUnits="userSpaceOnUse" gradientTransform="translate(405.273 405.271) rotate(90) scale(639.996 904.18)">
<stop offset="0.6" stop-color="#FFF5D9"/>
<stop offset="1" stop-color="white" stop-opacity="0"/>
</radialGradient>
<radialGradient id="paint3_angular_89_268" cx="0" cy="0" r="1" gradientUnits="userSpaceOnUse" gradientTransform="translate(405.274 405.27) rotate(90) scale(613.639 866.944)">
<stop offset="0.6" stop-color="#FFF5D9"/>
<stop offset="1" stop-color="white" stop-opacity="0"/>
</radialGradient>
<radialGradient id="paint4_angular_89_268" cx="0" cy="0" r="1" gradientUnits="userSpaceOnUse" gradientTransform="translate(405.27 405.272) rotate(90) scale(587.283 829.708)">
<stop offset="0.6" stop-color="#FFF5D9"/>
<stop offset="1" stop-color="white" stop-opacity="0"/>
</radialGradient>
<radialGradient id="paint5_angular_89_268" cx="0" cy="0" r="1" gradientUnits="userSpaceOnUse" gradientTransform="translate(405.268 405.272) rotate(90) scale(560.927 792.472)">
<stop offset="0.6" stop-color="#FFF5D9"/>
<stop offset="1" stop-color="white" stop-opacity="0"/>
</radialGradient>
<radialGradient id="paint6_angular_89_268" cx="0" cy="0" r="1" gradientUnits="userSpaceOnUse" gradientTransform="translate(405.27 405.272) rotate(90) scale(534.578 755.247)">
<stop offset="0.6" stop-color="#FFF5D9"/>
<stop offset="1" stop-color="white" stop-opacity="0"/>
</radialGradient>
<radialGradient id="paint7_angular_89_268" cx="0" cy="0" r="1" gradientUnits="userSpaceOnUse" gradientTransform="translate(405.27 405.271) rotate(90) scale(508.222 718.011)">
<stop offset="0.6" stop-color="#FFF5D9"/>
<stop offset="1" stop-color="white" stop-opacity="0"/>
</radialGradient>
<radialGradient id="paint8_angular_89_268" cx="0" cy="0" r="1" gradientUnits="userSpaceOnUse" gradientTransform="translate(405.271 405.271) rotate(90) scale(481.865 680.775)">
<stop offset="0.6" stop-color="#FFF5D9"/>
<stop offset="1" stop-color="white" stop-opacity="0"/>
</radialGradient>
<radialGradient id="paint9_angular_89_268" cx="0" cy="0" r="1" gradientUnits="userSpaceOnUse" gradientTransform="translate(405.269 405.272) rotate(90) scale(455.509 643.539)">
<stop offset="0.6" stop-color="#FFF5D9"/>
<stop offset="1" stop-color="white" stop-opacity="0"/>
</radialGradient>
<radialGradient id="paint10_angular_89_268" cx="0" cy="0" r="1" gradientUnits="userSpaceOnUse" gradientTransform="translate(405.27 405.272) rotate(90) scale(429.152 606.303)">
<stop offset="0.6" stop-color="#FFF5D9"/>
<stop offset="1" stop-color="white" stop-opacity="0"/>
</radialGradient>
<radialGradient id="paint11_angular_89_268" cx="0" cy="0" r="1" gradientUnits="userSpaceOnUse" gradientTransform="translate(405.271 405.273) rotate(90) scale(402.804 569.078)">
<stop offset="0.6" stop-color="#FFF5D9"/>
<stop offset="1" stop-color="white" stop-opacity="0"/>
</radialGradient>
<radialGradient id="paint12_angular_89_268" cx="0" cy="0" r="1" gradientUnits="userSpaceOnUse" gradientTransform="translate(405.268 405.272) rotate(90) scale(376.448 531.842)">
<stop offset="0.6" stop-color="#FFF5D9"/>
<stop offset="1" stop-color="white" stop-opacity="0"/>
</radialGradient>
<radialGradient id="paint13_angular_89_268" cx="0" cy="0" r="1" gradientUnits="userSpaceOnUse" gradientTransform="translate(405.269 405.271) rotate(90) scale(350.091 494.606)">
<stop offset="0.6" stop-color="#FFF5D9"/>
<stop offset="1" stop-color="white" stop-opacity="0"/>
</radialGradient>
<radialGradient id="paint14_angular_89_268" cx="0" cy="0" r="1" gradientUnits="userSpaceOnUse" gradientTransform="translate(405.27 405.272) rotate(90) scale(323.735 457.37)">
<stop offset="0.6" stop-color="#FFF5D9"/>
<stop offset="1" stop-color="white" stop-opacity="0"/>
</radialGradient>
<radialGradient id="paint15_angular_89_268" cx="0" cy="0" r="1" gradientUnits="userSpaceOnUse" gradientTransform="translate(405.271 405.271) rotate(90) scale(297.378 420.134)">
<stop offset="0.6" stop-color="#FFF5D9"/>
<stop offset="1" stop-color="white" stop-opacity="0"/>
</radialGradient>
<radialGradient id="paint16_angular_89_268" cx="0" cy="0" r="1" gradientUnits="userSpaceOnUse" gradientTransform="translate(405.273 405.27) rotate(90) scale(271.03 382.909)">
<stop offset="0.6" stop-color="#FFF5D9"/>
<stop offset="1" stop-color="white" stop-opacity="0"/>
</radialGradient>
<radialGradient id="paint17_angular_89_268" cx="0" cy="0" r="1" gradientUnits="userSpaceOnUse" gradientTransform="translate(405.27 405.272) rotate(90) scale(244.674 345.673)">
<stop offset="0.6" stop-color="#FFF5D9"/>
<stop offset="1" stop-color="white" stop-opacity="0"/>
</radialGradient>
<radialGradient id="paint18_angular_89_268" cx="0" cy="0" r="1" gradientUnits="userSpaceOnUse" gradientTransform="translate(405.271 405.271) rotate(90) scale(218.317 308.437)">
<stop offset="0.6" stop-color="#FFF5D9"/>
<stop offset="1" stop-color="white" stop-opacity="0"/>
</radialGradient>
<radialGradient id="paint19_angular_89_268" cx="0" cy="0" r="1" gradientUnits="userSpaceOnUse" gradientTransform="translate(405.272 405.27) rotate(90) scale(191.961 271.201)">
<stop offset="0.6" stop-color="#FFF5D9"/>
<stop offset="1" stop-color="white" stop-opacity="0"/>
</radialGradient>
<radialGradient id="paint20_angular_89_268" cx="0" cy="0" r="1" gradientUnits="userSpaceOnUse" gradientTransform="translate(405.269 405.272) rotate(90) scale(165.605 233.965)">
<stop offset="0.6" stop-color="#FFF5D9"/>
<stop offset="1" stop-color="white" stop-opacity="0"/>
</radialGradient>
<radialGradient id="paint21_angular_89_268" cx="0" cy="0" r="1" gradientUnits="userSpaceOnUse" gradientTransform="translate(405.271 405.271) rotate(90) scale(139.256 196.74)">
<stop offset="0.6" stop-color="#FFF5D9"/>
<stop offset="1" stop-color="white" stop-opacity="0"/>
</radialGradient>
</defs>
</svg>
