<svg width="189" height="155" viewBox="0 0 189 155" fill="none" xmlns="http://www.w3.org/2000/svg">
<path d="M94.1889 3L96.6865 2.89124C96.6274 1.53301 95.4937 0.471014 94.1345 0.500592C92.7753 0.53017 91.6889 1.64048 91.6889 3L94.1889 3ZM65.5777 38.7239C64.197 38.7239 63.0777 39.8432 63.0777 41.2239C63.0777 42.6046 64.197 43.7239 65.5777 43.7239V38.7239ZM91.6889 77.6276C91.6889 79.0083 92.8082 80.1276 94.1889 80.1276C95.5696 80.1276 96.6889 79.0083 96.6889 77.6276H91.6889ZM124.306 43.7239C125.687 43.7239 126.806 42.6046 126.806 41.2239C126.806 39.8432 125.687 38.7239 124.306 38.7239V43.7239ZM3.47558 59.9972L3.47558 57.4972H1.23906L0.991002 59.7199L3.47558 59.9972ZM94.9723 152V154.5H97.516L97.4719 151.957L94.9723 152ZM186 59.9918H188.5V57.758L186.28 57.5075L186 59.9918ZM94.5033 151.995H92.0033V154.539L94.5471 154.494L94.5033 151.995ZM91.6913 3.10876C91.7168 3.69563 91.7272 4.33143 91.7195 5.0095L96.7192 5.0661C96.7278 4.3028 96.7163 3.57539 96.6865 2.89124L91.6913 3.10876ZM91.7195 5.0095C91.6527 10.9066 90.2363 19.4975 86.2138 26.5204C82.2617 33.4203 75.8792 38.7239 65.5777 38.7239V43.7239C78.0417 43.7239 85.91 37.1106 90.5524 29.0055C95.1244 21.0234 96.6461 11.5213 96.7192 5.0661L91.7195 5.0095ZM65.5777 43.7239C70.0255 43.7239 76.4996 44.7508 81.8351 49.3127C87.0931 53.8084 91.6889 62.1221 91.6889 77.6276H96.6889C96.6889 61.0979 91.7477 51.2097 85.0844 45.5124C78.4984 39.8813 70.667 38.7239 65.5777 38.7239V43.7239ZM96.6889 77.6276C96.6889 71.8762 98.1334 63.2506 102.36 56.1547C106.51 49.1884 113.291 43.7239 124.306 43.7239V38.7239C111.227 38.7239 102.95 45.394 98.0645 53.5959C93.2562 61.6682 91.6889 71.2445 91.6889 77.6276H96.6889ZM124.306 38.7239C119.932 38.7239 113.237 37.0721 107.56 32.084C101.959 27.1619 97.1359 18.8023 96.7182 4.96238L91.7205 5.11322C92.1745 20.1562 97.4886 29.8896 104.26 35.8399C110.956 41.7241 118.868 43.7239 124.306 43.7239V38.7239ZM96.7182 4.96238C96.6988 4.32023 96.6889 3.66618 96.6889 3H91.6889C91.6889 3.71566 91.6995 4.42001 91.7205 5.11322L96.7182 4.96238ZM0.991002 59.7199C-0.768819 75.4886 1.80287 99.1309 15.3484 118.911C28.998 138.844 53.5497 154.5 94.9723 154.5V149.5C54.9833 149.5 32.0754 134.488 19.4739 116.086C6.7683 97.5325 4.2974 75.1734 5.96015 60.2745L0.991002 59.7199ZM97.4719 151.957C97.1992 136.233 92.202 112.705 78.0228 93.0363C63.755 73.2445 40.2726 57.4972 3.47558 57.4972L3.47558 62.4972C38.5995 62.4972 60.5996 77.4175 73.9669 95.9602C87.4229 114.626 92.2135 137.099 92.4726 152.043L97.4719 151.957ZM186.28 57.5075C170.59 55.737 147.069 58.3248 127.391 71.949C107.566 85.676 92.0033 110.358 92.0033 151.995H97.0033C97.0033 111.769 111.94 88.7292 130.238 76.0598C148.684 63.2877 170.911 60.805 185.72 62.476L186.28 57.5075ZM94.5471 154.494C110.192 154.22 133.597 149.193 153.161 134.933C172.847 120.583 188.5 96.9761 188.5 59.9918H183.5C183.5 95.3263 168.654 117.453 150.216 130.892C131.657 144.42 109.314 149.235 94.4595 149.495L94.5471 154.494Z" fill="#FFF5D9"/>
<path d="M21.382 47.3869L21.382 44.8869H19.1465L18.8976 47.1086L21.382 47.3869ZM168 47.3826L170.5 47.3826V45.1479L168.279 44.8983L168 47.3826ZM97.379 120.956C97.1586 108.296 93.123 89.364 81.6605 73.5261C70.1091 57.5655 51.1007 44.8869 21.382 44.8869L21.382 49.8869C49.4359 49.8869 66.9626 61.746 77.61 76.4576C88.3461 91.2918 92.173 109.166 92.3797 121.044L97.379 120.956ZM168.279 44.8983C155.591 43.4721 136.571 45.5524 120.645 56.5364C104.569 67.6236 92.0027 87.5368 92.0027 120.996H97.0027C97.0027 88.9555 108.936 70.6854 123.484 60.6524C138.181 50.5162 155.91 48.5395 167.721 49.867L168.279 44.8983ZM18.8976 47.1086C18.4035 51.5185 18.3336 56.6551 18.895 62.1382L23.869 61.6289C23.3431 56.4924 23.4129 51.7133 23.8665 47.6653L18.8976 47.1086ZM169.639 60.3419C170.203 56.261 170.5 51.945 170.5 47.3826L165.5 47.3826C165.5 51.7275 165.217 55.8146 164.686 59.6581L169.639 60.3419Z" fill="url(#paint0_linear_1723_9081)"/>
<defs>
<linearGradient id="paint0_linear_1723_9081" x1="94.5" y1="47" x2="94.5" y2="121" gradientUnits="userSpaceOnUse">
<stop stop-color="#FFF5D9"/>
<stop offset="1" stop-color="#FFF5D9" stop-opacity="0"/>
</linearGradient>
</defs>
</svg>
