<svg width="20" height="16" viewBox="0 0 20 16" fill="none" xmlns="http://www.w3.org/2000/svg">
<path d="M19.209 2.33338H20V0H12.5198L10.0339 9.16663H9.96594L7.50269 0H0V2.33332H0.76837C1.13188 2.39248 1.42214 2.66811 1.5 3.02808V12.8584C1.4172 13.206 1.12379 13.4633 0.76837 13.5H0V15.8334H6V13.5H4.5V3.16669H4.58752L8.0451 15.8334H10.7571L14.2599 3.16669H14.3334V13.5H12.8334V15.8334H20V13.5H19.209C18.8621 13.4548 18.5795 13.1992 18.5 12.8584V3.02814C18.5751 2.67504 18.8545 2.40131 19.209 2.33338Z" fill="#69C5F7"/>
</svg>
