<svg width="461" height="2019" viewBox="0 0 461 2019" fill="none" xmlns="http://www.w3.org/2000/svg">
<mask id="path-1-inside-1_0_808" fill="white">
<path fill-rule="evenodd" clip-rule="evenodd" d="M0 1984C0 2003.33 15.67 2019 35 2019H426C445.33 2019 461 2003.33 461 1984L461 35C461 15.67 445.33 -1.9466e-05 426 -1.86211e-05L34.9999 0C15.6699 0 -8.75683e-05 15.67 -8.67234e-05 35L0 1984Z"/>
</mask>
<path d="M0 1984L1 1984L1 1984L0 1984ZM461 1984L462 1984V1984L461 1984ZM461 35L460 35V35L461 35ZM426 -1.86211e-05L426 -1.00002L426 -1.86211e-05ZM34.9999 0L34.9999 1L34.9999 1L34.9999 0ZM-8.67234e-05 35L-1.00009 35L-8.67234e-05 35ZM35 2018C16.2223 2018 1 2002.78 1 1984H-1C-1 2003.88 15.1177 2020 35 2020V2018ZM426 2018H35V2020H426V2018ZM460 1984C460 2002.78 444.778 2018 426 2018V2020C445.882 2020 462 2003.88 462 1984H460ZM460 35L460 1984L462 1984L462 35L460 35ZM426 0.999981C444.778 0.999981 460 16.2223 460 35H462C462 15.1177 445.882 -1.00002 426 -1.00002L426 0.999981ZM34.9999 1L426 0.999981L426 -1.00002L34.9999 -1L34.9999 1ZM0.999913 35C0.999912 16.2223 16.2222 1 34.9999 1V-1C15.1177 -1 -1.00009 15.1178 -1.00009 35L0.999913 35ZM1 1984L0.999913 35L-1.00009 35L-1 1984L1 1984Z" fill="url(#paint0_diamond_0_808)" mask="url(#path-1-inside-1_0_808)"/>
<defs>
<radialGradient id="paint0_diamond_0_808" cx="0" cy="0" r="1" gradientUnits="userSpaceOnUse" gradientTransform="translate(230.5 856.5) rotate(90) scale(1467.59 557.991)">
<stop offset="0.6" stop-color="#FFF5D9"/>
<stop offset="1" stop-color="white" stop-opacity="0"/>
</radialGradient>
</defs>
</svg>
