<svg width="22" height="21" viewBox="0 0 22 21" fill="none" xmlns="http://www.w3.org/2000/svg">
<path fill-rule="evenodd" clip-rule="evenodd" d="M21.2647 0.473705C20.6846 -0.00890201 19.8861 -0.133472 19.1866 0.149495L1.26566 7.38484C0.481004 7.70768 -0.0224423 8.48191 0.000769952 9.33007C0.0239822 10.1782 0.569021 10.9238 1.37016 11.2032L4.99516 12.4639L7.01566 19.1456C7.04312 19.2348 7.08297 19.3198 7.13404 19.398C7.1382 19.4044 7.14326 19.41 7.14834 19.4155C7.15274 19.4203 7.15714 19.4252 7.16096 19.4306C7.21997 19.5129 7.29128 19.5857 7.37239 19.6463C7.39546 19.6639 7.41755 19.6804 7.44221 19.696C7.53715 19.759 7.64228 19.805 7.75294 19.8321L7.76478 19.8331L7.77149 19.836C7.83803 19.8495 7.90575 19.8564 7.97364 19.8565C7.97698 19.8565 7.98012 19.8557 7.98326 19.8549C7.985 19.8544 7.98675 19.854 7.98852 19.8537C7.98981 19.8534 7.99111 19.8533 7.99244 19.8533C8.09491 19.8515 8.19647 19.8338 8.29353 19.8009C8.30668 19.7965 8.31873 19.7902 8.33083 19.784C8.33952 19.7795 8.34822 19.775 8.35737 19.7711C8.42975 19.7411 8.49833 19.7027 8.56166 19.6565L8.71388 19.5284L11.416 16.545L15.4463 19.667C15.8011 19.9433 16.2379 20.0934 16.6875 20.0938C17.6586 20.0926 18.4962 19.4114 18.6954 18.461L21.958 2.44441C22.1087 1.70987 21.8421 0.9521 21.2647 0.473705ZM8.37016 12.7823C8.23151 12.9204 8.13672 13.0964 8.0977 13.2882L7.78819 14.7922L7.00413 12.1991L11.0694 10.0821L8.37016 12.7823ZM11.9092 14.3965L16.6719 18.086L19.999 2.04497L2.02055 9.23738L5.74491 10.6003L15.9102 5.30766C16.3479 5.07926 16.8868 5.20461 17.1788 5.60273C17.4708 6.00086 17.4285 6.55253 17.0791 6.90141L9.99613 13.9844L9.69029 15.4709L10.5557 14.5157C10.9068 14.1291 11.496 14.0772 11.9092 14.3965Z" fill="#69C5F7"/>
</svg>
