<svg width="23" height="19" viewBox="0 0 23 19" fill="none" xmlns="http://www.w3.org/2000/svg">
<path fill-rule="evenodd" clip-rule="evenodd" d="M21.495 0.439269C21.8076 0.617064 22.0005 0.949055 22.0003 1.30864C22.0751 2.85806 21.5228 4.37233 20.4681 5.50981C20.4691 5.57719 20.4691 5.64457 20.4691 5.71C20.4672 6.94491 20.287 8.17307 19.9339 9.35644C18.3818 14.9422 13.2661 18.785 7.46909 18.7198C4.983 18.7201 2.54942 18.0044 0.459324 16.6582C0.0665608 16.4058 -0.0991893 15.9151 0.0600389 15.4762C0.219267 15.0373 0.66107 14.7671 1.12432 14.8252C2.33959 14.9724 3.57241 14.8185 4.71417 14.377C3.59036 13.7312 2.74798 12.6892 2.35186 11.4551C2.26983 11.2001 2.29376 10.9228 2.41827 10.6856C1.5097 9.80912 0.952051 8.63133 0.849914 7.37307C0.830521 7.22741 0.821708 7.08055 0.823543 6.93362C0.822769 6.57143 1.01028 6.23488 1.31866 6.04494L1.32061 6.04299C0.63625 4.50581 0.726219 2.73437 1.5628 1.27444C1.72608 0.988512 2.01981 0.801458 2.34796 0.774438C2.67617 0.749431 2.99603 0.885685 3.20538 1.13969C4.91757 3.24007 7.34291 4.63681 10.0189 5.06355C10.11 2.24334 12.4209 0.00331613 15.2426 6.7894e-05C16.4799 -0.00443857 17.6775 0.43649 18.6166 1.24226C19.2741 1.06444 19.9043 0.797643 20.4896 0.449258C20.7985 0.265289 21.1825 0.261475 21.495 0.439269ZM18.4603 5.2227C18.4449 4.96735 18.5285 4.71589 18.6937 4.52055C19.1044 4.06212 19.4497 3.54915 19.72 2.99618C19.3238 3.13083 18.9189 3.23849 18.5081 3.31844C18.1702 3.38558 17.8217 3.27284 17.5872 3.02055C16.9826 2.36771 16.1323 1.99765 15.2425 2.00004C13.4613 2.00192 12.0178 3.4454 12.0159 5.22661C12.0165 5.472 12.0456 5.71649 12.1028 5.95513C12.1742 6.26081 12.0979 6.58225 11.8968 6.82329C11.6938 7.06189 11.3925 7.19402 11.0794 7.18169C8.01874 7.02465 5.11168 5.79245 2.87042 3.7022C2.86651 3.76763 2.86456 3.83404 2.86456 3.90044C2.86007 4.97399 3.39494 5.97806 4.28839 6.57328C4.66089 6.82013 4.82435 7.28419 4.68878 7.71C4.5475 8.13142 4.1498 8.413 3.70538 8.40629C3.52307 8.40038 3.34119 8.38506 3.16046 8.36039C3.60057 9.25479 4.43253 9.89285 5.41046 10.086C5.864 10.1755 6.19708 10.5642 6.21612 11.0261C6.23515 11.488 5.93517 11.9028 5.49054 12.0293C5.34308 12.0713 5.19464 12.1065 5.04522 12.1348C5.63422 12.7214 6.42792 13.0565 7.25909 13.0694C7.68212 13.0767 8.05482 13.3493 8.18987 13.7503C8.32492 14.1512 8.19311 14.5938 7.86069 14.8555C6.9799 15.5463 5.98372 16.0756 4.91831 16.419C5.75381 16.6191 6.60997 16.72 7.46909 16.7198C12.3912 16.8222 16.7462 13.548 18.015 8.79106C18.3141 7.7913 18.467 6.75354 18.4691 5.71C18.4691 5.697 18.4691 5.68393 18.4691 5.6708C18.4691 5.52609 18.4692 5.37397 18.4603 5.2227Z" fill="#69C5F7"/>
</svg>
