<?xml version="1.0" encoding="UTF-8" standalone="no"?>
<svg
   viewBox="0 0 137.48 137.48"
   version="1.1"
   id="svg306"
   sodipodi:docname="uqbar-icon-color.svg"
   inkscape:version="1.2.2 (732a01da63, 2022-12-09, custom)"
   xmlns:inkscape="http://www.inkscape.org/namespaces/inkscape"
   xmlns:sodipodi="http://sodipodi.sourceforge.net/DTD/sodipodi-0.dtd"
   xmlns="http://www.w3.org/2000/svg"
   xmlns:svg="http://www.w3.org/2000/svg">
  <sodipodi:namedview
     id="namedview308"
     pagecolor="#ffffff"
     bordercolor="#000000"
     borderopacity="0.25"
     inkscape:showpageshadow="2"
     inkscape:pageopacity="0.0"
     inkscape:pagecheckerboard="0"
     inkscape:deskcolor="#d1d1d1"
     showgrid="false"
     inkscape:zoom="4.2660751"
     inkscape:cx="144.86384"
     inkscape:cy="42.076147"
     inkscape:window-width="2502"
     inkscape:window-height="1376"
     inkscape:window-x="1082"
     inkscape:window-y="27"
     inkscape:window-maximized="1"
     inkscape:current-layer="svg306" />
  <defs
     id="defs284">
    <rect
       x="151.64586"
       y="27.728845"
       width="191.7672"
       height="86.541207"
       id="rect364" />
    <style
       id="style282">.cls-1{fill:#dd7c8a;}.cls-2{fill:#727bf2;}</style>
  </defs>
  <g
     id="Layer_2"
     data-name="Layer 2">
    <g
       id="Layer_1-2"
       data-name="Layer 1">
      <path
         class="cls-1"
         d="M56.56,38.19V1.1a68.76,68.76,0,0,0-8.13,1.95V41.83A31.69,31.69,0,0,1,56.56,38.19Z"
         id="path286" />
      <path
         class="cls-1"
         d="M48.43,95.65v38.78a68.79,68.79,0,0,0,8.13,2V99.3A31.71,31.71,0,0,1,48.43,95.65Z"
         id="path288" />
      <path
         class="cls-2"
         d="M113.21,16.34a68.13,68.13,0,0,0-8.44-6.14,67.24,67.24,0,0,0-7.6-4V131.32a67.18,67.18,0,0,0,7.6-4,69.25,69.25,0,0,0,8.44-6.15,68.7,68.7,0,0,0,0-104.8Z"
         id="path290" />
      <path
         class="cls-1"
         d="M72.8,37.82V99.66a31.8,31.8,0,0,0,0-61.84Z"
         id="path292" />
      <path
         class="cls-1"
         d="M65.37,36.94a31.88,31.88,0,0,1,7.43.88V.13C71.46.05,70.11,0,68.74,0S66,.05,64.68.13V37Z"
         id="path294" />
      <path
         class="cls-1"
         d="M0,68.74a68.34,68.34,0,0,0,7.82,31.83V36.91A68.34,68.34,0,0,0,0,68.74Z"
         id="path296" />
      <path
         class="cls-1"
         d="M15.94,24.73v88A70,70,0,0,0,24.06,121V16.52A70,70,0,0,0,15.94,24.73Z"
         id="path298" />
      <path
         class="cls-1"
         d="M33.57,68.74a31.62,31.62,0,0,1,6.74-19.56v-43a68.8,68.8,0,0,0-8.12,4.37V127a68.8,68.8,0,0,0,8.12,4.37v-43A31.67,31.67,0,0,1,33.57,68.74Z"
         id="path300" />
      <path
         class="cls-1"
         d="M65.37,100.54h-.69v36.82c1.35.08,2.7.13,4.06.13s2.72,0,4.06-.13V99.66A31.88,31.88,0,0,1,65.37,100.54Z"
         id="path302" />
    </g>
  </g>
  <text
     xml:space="preserve"
     id="text362"
     style="white-space:pre;shape-inside:url(#rect364);fill:#ffffff"><tspan
       x="151.64648"
       y="38.345703"
       id="tspan386">UQBAR</tspan></text>
</svg>
